# xmcd
#
# Track frame offsets:
#	183
#	22725
#	31363
#	77545
#	86000
#	103023
#	117965
#	127075
#	136255
#	146178
#	160335
#	172048
#	185845
#
# Disc length: 2703 seconds
#
# Revision: 0
# Processed by: cddbd v1.4b42PL0 Copyright (c) Steve Scherf et al.
# Submitted via: EasyCDDAExtractor 4.5.0.2
#
DISCID=b10a8d0d
DTITLE=Taxmeni - Country bal
DYEAR=1900
DGENRE=Country
TTITLE0=Kdyz jezdili Daltonove
TTITLE1=Nebe modry jako dziny
TTITLE2=Tanec na mlate
TTITLE3=Vyrocni country bal
TTITLE4=Fiddlin'Man
TTITLE5=Billy the Kid
TTITLE6=Posledni mile
TTITLE7=Par country muzikantu
TTITLE8=Singing on the Sunday
TTITLE9=Karbanik - nema si zenskou brat
TTITLE10=Matka my zeny
TTITLE11=Ohio
TTITLE12=John Henry
EXTD=
EXTT0=
EXTT1=
EXTT2=
EXTT3=
EXTT4=
EXTT5=
EXTT6=
EXTT7=
EXTT8=
EXTT9=
EXTT10=
EXTT11=
EXTT12=
PLAYORDER=
